<mxfile host="www.draw.io" modified="2020-02-06T02:36:09.309Z" agent="Mozilla/5.0 (Macintosh; Intel Mac OS X 10_14_6) AppleWebKit/537.36 (KHTML, like Gecko) Chrome/79.0.3945.117 Safari/537.36" etag="5ILOjU9uIk16Px5IhGq5" version="12.6.5" type="github">
  <diagram id="DQ5-OdrN3KlwLKlJDO0O" name="Page-1">
    <mxGraphModel dx="2537" dy="818" grid="1" gridSize="10" guides="1" tooltips="1" connect="1" arrows="1" fold="1" page="1" pageScale="1" pageWidth="827" pageHeight="1169" math="0" shadow="0">
      <root>
        <mxCell id="0"/>
        <mxCell id="1" parent="0"/>
        <mxCell id="GSYN4I2Z11RoLfkmnIbL-2" value="" style="rounded=0;whiteSpace=wrap;html=1;" parent="1" vertex="1">
          <mxGeometry x="-300" y="70" width="600" height="400" as="geometry"/>
        </mxCell>
        <mxCell id="GSYN4I2Z11RoLfkmnIbL-15" value="" style="group" parent="1" vertex="1" connectable="0">
          <mxGeometry x="73" y="100" width="187" height="140" as="geometry"/>
        </mxCell>
        <mxCell id="GSYN4I2Z11RoLfkmnIbL-14" value="node" style="rounded=1;whiteSpace=wrap;html=1;" parent="GSYN4I2Z11RoLfkmnIbL-15" vertex="1">
          <mxGeometry width="187" height="140" as="geometry"/>
        </mxCell>
        <mxCell id="GSYN4I2Z11RoLfkmnIbL-11" value="&amp;nbsp;主库连接池" style="rounded=1;whiteSpace=wrap;html=1;" parent="GSYN4I2Z11RoLfkmnIbL-15" vertex="1">
          <mxGeometry x="47" y="10" width="75" height="30" as="geometry"/>
        </mxCell>
        <mxCell id="GSYN4I2Z11RoLfkmnIbL-12" value="&amp;nbsp;从库连接池" style="rounded=1;whiteSpace=wrap;html=1;" parent="GSYN4I2Z11RoLfkmnIbL-15" vertex="1">
          <mxGeometry x="47" y="80" width="75" height="30" as="geometry"/>
        </mxCell>
        <mxCell id="GSYN4I2Z11RoLfkmnIbL-13" value="&amp;nbsp;从库连接池" style="rounded=1;whiteSpace=wrap;html=1;" parent="GSYN4I2Z11RoLfkmnIbL-15" vertex="1">
          <mxGeometry x="57" y="90" width="75" height="30" as="geometry"/>
        </mxCell>
        <mxCell id="GSYN4I2Z11RoLfkmnIbL-16" value="" style="group" parent="1" vertex="1" connectable="0">
          <mxGeometry x="70" y="290" width="187" height="140" as="geometry"/>
        </mxCell>
        <mxCell id="GSYN4I2Z11RoLfkmnIbL-17" value="node" style="rounded=1;whiteSpace=wrap;html=1;" parent="GSYN4I2Z11RoLfkmnIbL-16" vertex="1">
          <mxGeometry width="187" height="140" as="geometry"/>
        </mxCell>
        <mxCell id="GSYN4I2Z11RoLfkmnIbL-18" value="&amp;nbsp;主库连接池" style="rounded=1;whiteSpace=wrap;html=1;" parent="GSYN4I2Z11RoLfkmnIbL-16" vertex="1">
          <mxGeometry x="47" y="10" width="75" height="30" as="geometry"/>
        </mxCell>
        <mxCell id="GSYN4I2Z11RoLfkmnIbL-19" value="&amp;nbsp;从库连接池" style="rounded=1;whiteSpace=wrap;html=1;" parent="GSYN4I2Z11RoLfkmnIbL-16" vertex="1">
          <mxGeometry x="47" y="80" width="75" height="30" as="geometry"/>
        </mxCell>
        <mxCell id="GSYN4I2Z11RoLfkmnIbL-20" value="&amp;nbsp;从库连接池" style="rounded=1;whiteSpace=wrap;html=1;" parent="GSYN4I2Z11RoLfkmnIbL-16" vertex="1">
          <mxGeometry x="57" y="90" width="75" height="30" as="geometry"/>
        </mxCell>
        <mxCell id="GSYN4I2Z11RoLfkmnIbL-21" value="" style="group" parent="1" vertex="1" connectable="0">
          <mxGeometry x="-240" y="240" width="150" height="90" as="geometry"/>
        </mxCell>
        <mxCell id="GSYN4I2Z11RoLfkmnIbL-6" value="客户端连接" style="rounded=1;whiteSpace=wrap;html=1;" parent="GSYN4I2Z11RoLfkmnIbL-21" vertex="1">
          <mxGeometry width="120" height="60" as="geometry"/>
        </mxCell>
        <mxCell id="GSYN4I2Z11RoLfkmnIbL-7" value="客户端连接" style="rounded=1;whiteSpace=wrap;html=1;" parent="GSYN4I2Z11RoLfkmnIbL-21" vertex="1">
          <mxGeometry x="10" y="10" width="120" height="60" as="geometry"/>
        </mxCell>
        <mxCell id="GSYN4I2Z11RoLfkmnIbL-8" value="客户端连接" style="rounded=1;whiteSpace=wrap;html=1;" parent="GSYN4I2Z11RoLfkmnIbL-21" vertex="1">
          <mxGeometry x="20" y="20" width="120" height="60" as="geometry"/>
        </mxCell>
        <mxCell id="GSYN4I2Z11RoLfkmnIbL-9" value="客户端连接" style="rounded=1;whiteSpace=wrap;html=1;" parent="GSYN4I2Z11RoLfkmnIbL-21" vertex="1">
          <mxGeometry x="30" y="30" width="120" height="60" as="geometry"/>
        </mxCell>
        <mxCell id="GSYN4I2Z11RoLfkmnIbL-25" value="客户端" style="rounded=1;whiteSpace=wrap;html=1;" parent="1" vertex="1">
          <mxGeometry x="-510" y="180" width="120" height="60" as="geometry"/>
        </mxCell>
        <mxCell id="GSYN4I2Z11RoLfkmnIbL-26" value="客户端" style="rounded=1;whiteSpace=wrap;html=1;" parent="1" vertex="1">
          <mxGeometry x="-510" y="330" width="120" height="60" as="geometry"/>
        </mxCell>
        <mxCell id="GSYN4I2Z11RoLfkmnIbL-27" value="" style="shape=flexArrow;endArrow=classic;startArrow=classic;html=1;entryX=-0.002;entryY=0.343;entryDx=0;entryDy=0;entryPerimeter=0;" parent="1" source="GSYN4I2Z11RoLfkmnIbL-25" target="GSYN4I2Z11RoLfkmnIbL-2" edge="1">
          <mxGeometry width="50" height="50" relative="1" as="geometry">
            <mxPoint x="-390" y="260" as="sourcePoint"/>
            <mxPoint x="-319.28932188134524" y="210" as="targetPoint"/>
          </mxGeometry>
        </mxCell>
        <mxCell id="GSYN4I2Z11RoLfkmnIbL-28" value="" style="shape=flexArrow;endArrow=classic;startArrow=classic;html=1;" parent="1" edge="1">
          <mxGeometry width="50" height="50" relative="1" as="geometry">
            <mxPoint x="-390" y="360.8309677419355" as="sourcePoint"/>
            <mxPoint x="-301" y="359" as="targetPoint"/>
          </mxGeometry>
        </mxCell>
        <mxCell id="GSYN4I2Z11RoLfkmnIbL-33" value="" style="shape=flexArrow;endArrow=classic;startArrow=classic;html=1;entryX=0.999;entryY=0.725;entryDx=0;entryDy=0;entryPerimeter=0;" parent="1" target="GSYN4I2Z11RoLfkmnIbL-2" edge="1">
          <mxGeometry width="50" height="50" relative="1" as="geometry">
            <mxPoint x="420" y="360" as="sourcePoint"/>
            <mxPoint x="349.28932188134524" y="360" as="targetPoint"/>
          </mxGeometry>
        </mxCell>
        <mxCell id="GSYN4I2Z11RoLfkmnIbL-41" value="" style="endArrow=none;dashed=1;html=1;exitX=0.5;exitY=0;exitDx=0;exitDy=0;entryX=0.5;entryY=1;entryDx=0;entryDy=0;" parent="1" source="GSYN4I2Z11RoLfkmnIbL-2" target="GSYN4I2Z11RoLfkmnIbL-2" edge="1">
          <mxGeometry width="50" height="50" relative="1" as="geometry">
            <mxPoint x="-30" y="-10" as="sourcePoint"/>
            <mxPoint x="-30" y="470" as="targetPoint"/>
          </mxGeometry>
        </mxCell>
        <mxCell id="GSYN4I2Z11RoLfkmnIbL-43" value="" style="curved=1;endArrow=classic;html=1;entryX=0;entryY=0.5;entryDx=0;entryDy=0;" parent="1" target="GSYN4I2Z11RoLfkmnIbL-17" edge="1">
          <mxGeometry width="50" height="50" relative="1" as="geometry">
            <mxPoint x="-90" y="300" as="sourcePoint"/>
            <mxPoint x="-460" y="490" as="targetPoint"/>
            <Array as="points">
              <mxPoint x="-70" y="380"/>
            </Array>
          </mxGeometry>
        </mxCell>
        <mxCell id="GSYN4I2Z11RoLfkmnIbL-44" value="" style="curved=1;endArrow=classic;html=1;entryX=0;entryY=0.5;entryDx=0;entryDy=0;exitX=1;exitY=0.5;exitDx=0;exitDy=0;" parent="1" source="GSYN4I2Z11RoLfkmnIbL-9" edge="1">
          <mxGeometry width="50" height="50" relative="1" as="geometry">
            <mxPoint x="-87" y="110" as="sourcePoint"/>
            <mxPoint x="73" y="170" as="targetPoint"/>
            <Array as="points">
              <mxPoint x="-67" y="190"/>
            </Array>
          </mxGeometry>
        </mxCell>
        <mxCell id="GSYN4I2Z11RoLfkmnIbL-53" value="Database" style="shape=cylinder;whiteSpace=wrap;html=1;boundedLbl=1;backgroundOutline=1;" parent="1" vertex="1">
          <mxGeometry x="420" y="320" width="110" height="80" as="geometry"/>
        </mxCell>
        <mxCell id="GSYN4I2Z11RoLfkmnIbL-54" value="Database" style="shape=cylinder;whiteSpace=wrap;html=1;boundedLbl=1;backgroundOutline=1;" parent="1" vertex="1">
          <mxGeometry x="420" y="160" width="110" height="80" as="geometry"/>
        </mxCell>
        <mxCell id="GSYN4I2Z11RoLfkmnIbL-55" value="" style="shape=flexArrow;endArrow=classic;startArrow=classic;html=1;entryX=0.999;entryY=0.725;entryDx=0;entryDy=0;entryPerimeter=0;" parent="1" edge="1">
          <mxGeometry width="50" height="50" relative="1" as="geometry">
            <mxPoint x="420.6" y="199.40999999999997" as="sourcePoint"/>
            <mxPoint x="300.0000000000001" y="199.40999999999997" as="targetPoint"/>
          </mxGeometry>
        </mxCell>
        <mxCell id="GSYN4I2Z11RoLfkmnIbL-56" value="" style="rounded=0;whiteSpace=wrap;html=1;" parent="1" vertex="1">
          <mxGeometry x="-300" y="540" width="600" height="400" as="geometry"/>
        </mxCell>
        <mxCell id="GSYN4I2Z11RoLfkmnIbL-57" value="" style="group" parent="1" vertex="1" connectable="0">
          <mxGeometry x="73" y="570" width="187" height="140" as="geometry"/>
        </mxCell>
        <mxCell id="GSYN4I2Z11RoLfkmnIbL-58" value="node" style="rounded=1;whiteSpace=wrap;html=1;" parent="GSYN4I2Z11RoLfkmnIbL-57" vertex="1">
          <mxGeometry width="187" height="140" as="geometry"/>
        </mxCell>
        <mxCell id="GSYN4I2Z11RoLfkmnIbL-59" value="&amp;nbsp;主库连接池" style="rounded=1;whiteSpace=wrap;html=1;" parent="GSYN4I2Z11RoLfkmnIbL-57" vertex="1">
          <mxGeometry x="47" y="10" width="75" height="30" as="geometry"/>
        </mxCell>
        <mxCell id="GSYN4I2Z11RoLfkmnIbL-60" value="&amp;nbsp;从库连接池" style="rounded=1;whiteSpace=wrap;html=1;" parent="GSYN4I2Z11RoLfkmnIbL-57" vertex="1">
          <mxGeometry x="47" y="80" width="75" height="30" as="geometry"/>
        </mxCell>
        <mxCell id="GSYN4I2Z11RoLfkmnIbL-61" value="&amp;nbsp;从库连接池" style="rounded=1;whiteSpace=wrap;html=1;" parent="GSYN4I2Z11RoLfkmnIbL-57" vertex="1">
          <mxGeometry x="57" y="90" width="75" height="30" as="geometry"/>
        </mxCell>
        <mxCell id="GSYN4I2Z11RoLfkmnIbL-62" value="" style="group" parent="1" vertex="1" connectable="0">
          <mxGeometry x="70" y="760" width="187" height="140" as="geometry"/>
        </mxCell>
        <mxCell id="GSYN4I2Z11RoLfkmnIbL-63" value="node" style="rounded=1;whiteSpace=wrap;html=1;" parent="GSYN4I2Z11RoLfkmnIbL-62" vertex="1">
          <mxGeometry width="187" height="140" as="geometry"/>
        </mxCell>
        <mxCell id="GSYN4I2Z11RoLfkmnIbL-64" value="&amp;nbsp;主库连接池" style="rounded=1;whiteSpace=wrap;html=1;" parent="GSYN4I2Z11RoLfkmnIbL-62" vertex="1">
          <mxGeometry x="47" y="10" width="75" height="30" as="geometry"/>
        </mxCell>
        <mxCell id="GSYN4I2Z11RoLfkmnIbL-65" value="&amp;nbsp;从库连接池" style="rounded=1;whiteSpace=wrap;html=1;" parent="GSYN4I2Z11RoLfkmnIbL-62" vertex="1">
          <mxGeometry x="47" y="80" width="75" height="30" as="geometry"/>
        </mxCell>
        <mxCell id="GSYN4I2Z11RoLfkmnIbL-66" value="&amp;nbsp;从库连接池" style="rounded=1;whiteSpace=wrap;html=1;" parent="GSYN4I2Z11RoLfkmnIbL-62" vertex="1">
          <mxGeometry x="57" y="90" width="75" height="30" as="geometry"/>
        </mxCell>
        <mxCell id="GSYN4I2Z11RoLfkmnIbL-67" value="" style="group" parent="1" vertex="1" connectable="0">
          <mxGeometry x="-240" y="710" width="150" height="90" as="geometry"/>
        </mxCell>
        <mxCell id="GSYN4I2Z11RoLfkmnIbL-68" value="客户端连接" style="rounded=1;whiteSpace=wrap;html=1;" parent="GSYN4I2Z11RoLfkmnIbL-67" vertex="1">
          <mxGeometry width="120" height="60" as="geometry"/>
        </mxCell>
        <mxCell id="GSYN4I2Z11RoLfkmnIbL-69" value="客户端连接" style="rounded=1;whiteSpace=wrap;html=1;" parent="GSYN4I2Z11RoLfkmnIbL-67" vertex="1">
          <mxGeometry x="10" y="10" width="120" height="60" as="geometry"/>
        </mxCell>
        <mxCell id="GSYN4I2Z11RoLfkmnIbL-70" value="客户端连接" style="rounded=1;whiteSpace=wrap;html=1;" parent="GSYN4I2Z11RoLfkmnIbL-67" vertex="1">
          <mxGeometry x="20" y="20" width="120" height="60" as="geometry"/>
        </mxCell>
        <mxCell id="GSYN4I2Z11RoLfkmnIbL-71" value="客户端连接" style="rounded=1;whiteSpace=wrap;html=1;" parent="GSYN4I2Z11RoLfkmnIbL-67" vertex="1">
          <mxGeometry x="30" y="30" width="120" height="60" as="geometry"/>
        </mxCell>
        <mxCell id="GSYN4I2Z11RoLfkmnIbL-72" value="客户端" style="rounded=1;whiteSpace=wrap;html=1;" parent="1" vertex="1">
          <mxGeometry x="-510" y="650" width="120" height="60" as="geometry"/>
        </mxCell>
        <mxCell id="GSYN4I2Z11RoLfkmnIbL-73" value="客户端" style="rounded=1;whiteSpace=wrap;html=1;" parent="1" vertex="1">
          <mxGeometry x="-510" y="800" width="120" height="60" as="geometry"/>
        </mxCell>
        <mxCell id="GSYN4I2Z11RoLfkmnIbL-74" value="" style="shape=flexArrow;endArrow=classic;startArrow=classic;html=1;entryX=-0.002;entryY=0.343;entryDx=0;entryDy=0;entryPerimeter=0;" parent="1" source="GSYN4I2Z11RoLfkmnIbL-72" target="GSYN4I2Z11RoLfkmnIbL-56" edge="1">
          <mxGeometry width="50" height="50" relative="1" as="geometry">
            <mxPoint x="-390" y="730" as="sourcePoint"/>
            <mxPoint x="-319.28932188134524" y="680" as="targetPoint"/>
          </mxGeometry>
        </mxCell>
        <mxCell id="GSYN4I2Z11RoLfkmnIbL-75" value="" style="shape=flexArrow;endArrow=classic;startArrow=classic;html=1;" parent="1" edge="1">
          <mxGeometry width="50" height="50" relative="1" as="geometry">
            <mxPoint x="-390.0000000000002" y="830.8309677419356" as="sourcePoint"/>
            <mxPoint x="-301" y="829" as="targetPoint"/>
          </mxGeometry>
        </mxCell>
        <mxCell id="GSYN4I2Z11RoLfkmnIbL-76" value="" style="shape=flexArrow;endArrow=classic;startArrow=classic;html=1;entryX=0.999;entryY=0.725;entryDx=0;entryDy=0;entryPerimeter=0;" parent="1" target="GSYN4I2Z11RoLfkmnIbL-56" edge="1">
          <mxGeometry width="50" height="50" relative="1" as="geometry">
            <mxPoint x="420" y="830" as="sourcePoint"/>
            <mxPoint x="349.28932188134524" y="830" as="targetPoint"/>
          </mxGeometry>
        </mxCell>
        <mxCell id="GSYN4I2Z11RoLfkmnIbL-77" value="" style="endArrow=none;dashed=1;html=1;exitX=0.5;exitY=0;exitDx=0;exitDy=0;entryX=0.5;entryY=1;entryDx=0;entryDy=0;" parent="1" source="GSYN4I2Z11RoLfkmnIbL-56" target="GSYN4I2Z11RoLfkmnIbL-56" edge="1">
          <mxGeometry width="50" height="50" relative="1" as="geometry">
            <mxPoint x="-30" y="460" as="sourcePoint"/>
            <mxPoint x="-30" y="940" as="targetPoint"/>
          </mxGeometry>
        </mxCell>
        <mxCell id="GSYN4I2Z11RoLfkmnIbL-78" value="" style="curved=1;endArrow=classic;html=1;entryX=0;entryY=0.5;entryDx=0;entryDy=0;" parent="1" target="GSYN4I2Z11RoLfkmnIbL-63" edge="1">
          <mxGeometry width="50" height="50" relative="1" as="geometry">
            <mxPoint x="-90" y="770" as="sourcePoint"/>
            <mxPoint x="-460" y="960" as="targetPoint"/>
            <Array as="points">
              <mxPoint x="-70" y="850"/>
            </Array>
          </mxGeometry>
        </mxCell>
        <mxCell id="GSYN4I2Z11RoLfkmnIbL-79" value="" style="curved=1;endArrow=classic;html=1;entryX=0;entryY=0.5;entryDx=0;entryDy=0;exitX=1;exitY=0.5;exitDx=0;exitDy=0;" parent="1" source="GSYN4I2Z11RoLfkmnIbL-71" edge="1">
          <mxGeometry width="50" height="50" relative="1" as="geometry">
            <mxPoint x="-87" y="580" as="sourcePoint"/>
            <mxPoint x="73" y="640" as="targetPoint"/>
            <Array as="points">
              <mxPoint x="-67" y="660"/>
            </Array>
          </mxGeometry>
        </mxCell>
        <mxCell id="GSYN4I2Z11RoLfkmnIbL-80" value="MySql" style="shape=cylinder;whiteSpace=wrap;html=1;boundedLbl=1;backgroundOutline=1;" parent="1" vertex="1">
          <mxGeometry x="420" y="790" width="110" height="80" as="geometry"/>
        </mxCell>
        <mxCell id="GSYN4I2Z11RoLfkmnIbL-81" value="MySql" style="shape=cylinder;whiteSpace=wrap;html=1;boundedLbl=1;backgroundOutline=1;" parent="1" vertex="1">
          <mxGeometry x="420" y="630" width="110" height="80" as="geometry"/>
        </mxCell>
        <mxCell id="GSYN4I2Z11RoLfkmnIbL-82" value="" style="shape=flexArrow;endArrow=classic;startArrow=classic;html=1;entryX=0.999;entryY=0.725;entryDx=0;entryDy=0;entryPerimeter=0;" parent="1" edge="1">
          <mxGeometry width="50" height="50" relative="1" as="geometry">
            <mxPoint x="420.5999999999999" y="669.41" as="sourcePoint"/>
            <mxPoint x="300" y="669.41" as="targetPoint"/>
          </mxGeometry>
        </mxCell>
        <mxCell id="FYhfgqit3NOUzNeGX5rB-2" value="" style="rounded=0;whiteSpace=wrap;html=1;" parent="1" vertex="1">
          <mxGeometry x="-300" y="1000" width="600" height="400" as="geometry"/>
        </mxCell>
        <mxCell id="FYhfgqit3NOUzNeGX5rB-3" value="" style="group" parent="1" vertex="1" connectable="0">
          <mxGeometry x="73" y="1030" width="187" height="140" as="geometry"/>
        </mxCell>
        <mxCell id="FYhfgqit3NOUzNeGX5rB-4" value="node" style="rounded=1;whiteSpace=wrap;html=1;" parent="FYhfgqit3NOUzNeGX5rB-3" vertex="1">
          <mxGeometry width="187" height="140" as="geometry"/>
        </mxCell>
        <mxCell id="FYhfgqit3NOUzNeGX5rB-5" value="&amp;nbsp;主库连接池" style="rounded=1;whiteSpace=wrap;html=1;" parent="FYhfgqit3NOUzNeGX5rB-3" vertex="1">
          <mxGeometry x="47" y="10" width="75" height="30" as="geometry"/>
        </mxCell>
        <mxCell id="FYhfgqit3NOUzNeGX5rB-6" value="&amp;nbsp;从库连接池" style="rounded=1;whiteSpace=wrap;html=1;" parent="FYhfgqit3NOUzNeGX5rB-3" vertex="1">
          <mxGeometry x="47" y="80" width="75" height="30" as="geometry"/>
        </mxCell>
        <mxCell id="FYhfgqit3NOUzNeGX5rB-7" value="&amp;nbsp;从库连接池" style="rounded=1;whiteSpace=wrap;html=1;" parent="FYhfgqit3NOUzNeGX5rB-3" vertex="1">
          <mxGeometry x="57" y="90" width="75" height="30" as="geometry"/>
        </mxCell>
        <mxCell id="FYhfgqit3NOUzNeGX5rB-8" value="" style="group" parent="1" vertex="1" connectable="0">
          <mxGeometry x="70" y="1220" width="187" height="140" as="geometry"/>
        </mxCell>
        <mxCell id="FYhfgqit3NOUzNeGX5rB-9" value="node" style="rounded=1;whiteSpace=wrap;html=1;" parent="FYhfgqit3NOUzNeGX5rB-8" vertex="1">
          <mxGeometry width="187" height="140" as="geometry"/>
        </mxCell>
        <mxCell id="FYhfgqit3NOUzNeGX5rB-10" value="&amp;nbsp;主库连接池" style="rounded=1;whiteSpace=wrap;html=1;" parent="FYhfgqit3NOUzNeGX5rB-8" vertex="1">
          <mxGeometry x="47" y="10" width="75" height="30" as="geometry"/>
        </mxCell>
        <mxCell id="FYhfgqit3NOUzNeGX5rB-11" value="&amp;nbsp;从库连接池" style="rounded=1;whiteSpace=wrap;html=1;" parent="FYhfgqit3NOUzNeGX5rB-8" vertex="1">
          <mxGeometry x="47" y="80" width="75" height="30" as="geometry"/>
        </mxCell>
        <mxCell id="FYhfgqit3NOUzNeGX5rB-12" value="&amp;nbsp;从库连接池" style="rounded=1;whiteSpace=wrap;html=1;" parent="FYhfgqit3NOUzNeGX5rB-8" vertex="1">
          <mxGeometry x="57" y="90" width="75" height="30" as="geometry"/>
        </mxCell>
        <mxCell id="FYhfgqit3NOUzNeGX5rB-13" value="" style="group" parent="1" vertex="1" connectable="0">
          <mxGeometry x="-240" y="1170" width="150" height="90" as="geometry"/>
        </mxCell>
        <mxCell id="FYhfgqit3NOUzNeGX5rB-14" value="客户端连接" style="rounded=1;whiteSpace=wrap;html=1;" parent="FYhfgqit3NOUzNeGX5rB-13" vertex="1">
          <mxGeometry width="120" height="60" as="geometry"/>
        </mxCell>
        <mxCell id="FYhfgqit3NOUzNeGX5rB-15" value="客户端连接" style="rounded=1;whiteSpace=wrap;html=1;" parent="FYhfgqit3NOUzNeGX5rB-13" vertex="1">
          <mxGeometry x="10" y="10" width="120" height="60" as="geometry"/>
        </mxCell>
        <mxCell id="FYhfgqit3NOUzNeGX5rB-16" value="客户端连接" style="rounded=1;whiteSpace=wrap;html=1;" parent="FYhfgqit3NOUzNeGX5rB-13" vertex="1">
          <mxGeometry x="20" y="20" width="120" height="60" as="geometry"/>
        </mxCell>
        <mxCell id="FYhfgqit3NOUzNeGX5rB-17" value="客户端连接" style="rounded=1;whiteSpace=wrap;html=1;" parent="FYhfgqit3NOUzNeGX5rB-13" vertex="1">
          <mxGeometry x="30" y="30" width="120" height="60" as="geometry"/>
        </mxCell>
        <mxCell id="FYhfgqit3NOUzNeGX5rB-18" value="客户端" style="rounded=1;whiteSpace=wrap;html=1;" parent="1" vertex="1">
          <mxGeometry x="-510" y="1110" width="120" height="60" as="geometry"/>
        </mxCell>
        <mxCell id="FYhfgqit3NOUzNeGX5rB-19" value="客户端" style="rounded=1;whiteSpace=wrap;html=1;" parent="1" vertex="1">
          <mxGeometry x="-510" y="1260" width="120" height="60" as="geometry"/>
        </mxCell>
        <mxCell id="FYhfgqit3NOUzNeGX5rB-20" value="" style="shape=flexArrow;endArrow=classic;startArrow=classic;html=1;entryX=-0.002;entryY=0.343;entryDx=0;entryDy=0;entryPerimeter=0;" parent="1" source="FYhfgqit3NOUzNeGX5rB-18" target="FYhfgqit3NOUzNeGX5rB-2" edge="1">
          <mxGeometry width="50" height="50" relative="1" as="geometry">
            <mxPoint x="-390" y="1190" as="sourcePoint"/>
            <mxPoint x="-319.28932188134524" y="1140" as="targetPoint"/>
          </mxGeometry>
        </mxCell>
        <mxCell id="FYhfgqit3NOUzNeGX5rB-21" value="" style="shape=flexArrow;endArrow=classic;startArrow=classic;html=1;" parent="1" edge="1">
          <mxGeometry width="50" height="50" relative="1" as="geometry">
            <mxPoint x="-390" y="1290.8309677419356" as="sourcePoint"/>
            <mxPoint x="-301" y="1289" as="targetPoint"/>
          </mxGeometry>
        </mxCell>
        <mxCell id="FYhfgqit3NOUzNeGX5rB-22" value="" style="shape=flexArrow;endArrow=classic;startArrow=classic;html=1;entryX=0.999;entryY=0.725;entryDx=0;entryDy=0;entryPerimeter=0;" parent="1" target="FYhfgqit3NOUzNeGX5rB-2" edge="1">
          <mxGeometry width="50" height="50" relative="1" as="geometry">
            <mxPoint x="420" y="1290" as="sourcePoint"/>
            <mxPoint x="349.28932188134524" y="1290" as="targetPoint"/>
          </mxGeometry>
        </mxCell>
        <mxCell id="FYhfgqit3NOUzNeGX5rB-23" value="" style="endArrow=none;dashed=1;html=1;exitX=0.5;exitY=0;exitDx=0;exitDy=0;entryX=0.5;entryY=1;entryDx=0;entryDy=0;" parent="1" source="FYhfgqit3NOUzNeGX5rB-2" target="FYhfgqit3NOUzNeGX5rB-2" edge="1">
          <mxGeometry width="50" height="50" relative="1" as="geometry">
            <mxPoint x="-30" y="920" as="sourcePoint"/>
            <mxPoint x="-30" y="1400" as="targetPoint"/>
          </mxGeometry>
        </mxCell>
        <mxCell id="FYhfgqit3NOUzNeGX5rB-26" value="MySql" style="shape=cylinder;whiteSpace=wrap;html=1;boundedLbl=1;backgroundOutline=1;" parent="1" vertex="1">
          <mxGeometry x="420" y="1250" width="110" height="80" as="geometry"/>
        </mxCell>
        <mxCell id="FYhfgqit3NOUzNeGX5rB-27" value="MySql" style="shape=cylinder;whiteSpace=wrap;html=1;boundedLbl=1;backgroundOutline=1;" parent="1" vertex="1">
          <mxGeometry x="420" y="1090" width="110" height="80" as="geometry"/>
        </mxCell>
        <mxCell id="FYhfgqit3NOUzNeGX5rB-28" value="" style="shape=flexArrow;endArrow=classic;startArrow=classic;html=1;entryX=0.999;entryY=0.725;entryDx=0;entryDy=0;entryPerimeter=0;" parent="1" edge="1">
          <mxGeometry width="50" height="50" relative="1" as="geometry">
            <mxPoint x="420.5999999999999" y="1129.4099999999999" as="sourcePoint"/>
            <mxPoint x="300" y="1129.4099999999999" as="targetPoint"/>
          </mxGeometry>
        </mxCell>
        <mxCell id="FYhfgqit3NOUzNeGX5rB-32" style="edgeStyle=orthogonalEdgeStyle;rounded=0;orthogonalLoop=1;jettySize=auto;html=1;exitX=1;exitY=0.75;exitDx=0;exitDy=0;" parent="1" source="FYhfgqit3NOUzNeGX5rB-29" target="FYhfgqit3NOUzNeGX5rB-9" edge="1">
          <mxGeometry relative="1" as="geometry">
            <Array as="points">
              <mxPoint x="35" y="1290"/>
            </Array>
          </mxGeometry>
        </mxCell>
        <mxCell id="FYhfgqit3NOUzNeGX5rB-29" value="调度器" style="rounded=1;whiteSpace=wrap;html=1;" parent="1" vertex="1">
          <mxGeometry x="-35" y="1060" width="70" height="280" as="geometry"/>
        </mxCell>
        <mxCell id="FYhfgqit3NOUzNeGX5rB-31" value="" style="curved=1;endArrow=classic;html=1;entryX=0;entryY=0.5;entryDx=0;entryDy=0;exitX=0.986;exitY=0.139;exitDx=0;exitDy=0;exitPerimeter=0;" parent="1" source="FYhfgqit3NOUzNeGX5rB-29" target="FYhfgqit3NOUzNeGX5rB-4" edge="1">
          <mxGeometry width="50" height="50" relative="1" as="geometry">
            <mxPoint x="35" y="1250" as="sourcePoint"/>
            <mxPoint x="105.71067811865476" y="1200" as="targetPoint"/>
          </mxGeometry>
        </mxCell>
        <mxCell id="FYhfgqit3NOUzNeGX5rB-33" style="edgeStyle=orthogonalEdgeStyle;rounded=0;orthogonalLoop=1;jettySize=auto;html=1;entryX=0.071;entryY=0.607;entryDx=0;entryDy=0;entryPerimeter=0;" parent="1" source="FYhfgqit3NOUzNeGX5rB-17" target="FYhfgqit3NOUzNeGX5rB-29" edge="1">
          <mxGeometry relative="1" as="geometry"/>
        </mxCell>
      </root>
    </mxGraphModel>
  </diagram>
</mxfile>
